<svg xmlns="http://www.w3.org/2000/svg" width="24" height="32"><rect id="backgroundrect" width="100%" height="100%" x="0" y="0" fill="none" stroke="none"/><g class="currentLayer" style=""><title>Layer 1</title><path fill="#99ccff" d="M12 0s12 13.373 12 20-5.372 12-12 12c-6.627 0-12-5.373-12-12l12-20z" id="svg_1" class="" fill-opacity="1"/><path fill="#abecec" d="M16.994 16c-1.108 0-2.006.898-2.006 2.007 0 1.107.897 2.005 2.006 2.005 1.107 0 2.006-.897 2.006-2.005 0-1.109-.898-2.007-2.006-2.007z" id="svg_2" class="" fill-opacity="1"/><path fill="#369DC0" d="M13 31c-6.627 0-12-5.373-12-12 0-5.497 8.25-15.627 11.066-18.926l-.066-.074s-12 13.373-12 20 5.373 12 12 12c3.568 0 6.764-1.566 8.961-4.039-2.119 1.885-4.901 3.039-7.961 3.039z" id="svg_3"/></g></svg>