<svg xmlns="http://www.w3.org/2000/svg" xmlns:xlink="http://www.w3.org/1999/xlink" version="1.1" width="514.9520263671875" height="514.9520263671875" style="" xml:space="preserve"><rect id="backgroundrect" width="100%" height="100%" x="0" y="0" fill="none" stroke="none"/>
















<g class="currentLayer" style=""><title>Layer 1</title><g id="svg_1" class="selected" fill-opacity="1" fill="#3f4e57" stroke="#000000" stroke-opacity="1">
	<g id="svg_2" fill="#3f4e57" stroke="#000000" stroke-opacity="1">
		<path d="M316.099,85.846c-24.586-35.32-45.821-65.827-50.974-80.433c-1.139-3.215-4.145-5.372-7.554-5.414    c-3.15,0.096-6.476,2.044-7.68,5.227c-5.244,13.812-25.405,42.765-48.752,76.314C147.671,158.326,74.447,263.494,74.447,331.917    c0,100.926,82.103,183.034,183.029,183.034s183.029-82.108,183.029-183.034C440.505,264.6,368.599,161.285,316.099,85.846z" id="svg_3" fill="#3f4e57" stroke="#000000" stroke-opacity="1"/>
	</g>
</g><g id="svg_4">
</g><g id="svg_5">
</g><g id="svg_6">
</g><g id="svg_7">
</g><g id="svg_8">
</g><g id="svg_9">
</g><g id="svg_10">
</g><g id="svg_11">
</g><g id="svg_12">
</g><g id="svg_13">
</g><g id="svg_14">
</g><g id="svg_15">
</g><g id="svg_16">
</g><g id="svg_17">
</g><g id="svg_18">
</g><polyline fill="none" stroke="#000000" stroke-dashoffset="" fill-rule="nonzero" marker-start="" marker-mid="" marker-end="" id="svg_19" points="186.7617185508051,225.73350384406226 186.7617185508051,225.73350384406226 186.7617185508051,225.73350384406226 " style="color: rgb(51, 102, 102);"/></g></svg>