<svg xmlns="http://www.w3.org/2000/svg" xmlns:xlink="http://www.w3.org/1999/xlink" viewBox="0 0 210.62 82.59"><defs><style>.cls-1{fill:none;}.cls-2{clip-path:url(#clip-path);}.cls-3{fill:#a7ccec;}.cls-4{fill:#404f58;}</style><clipPath id="clip-path" transform="translate(0.07)"><path class="cls-1" d="M50.54,33.23A2.87,2.87,0,0,1,47.81,36c-1.79,0-2.85.87-4.39,2.26s-3.58,3.6-6.91,3.6-5.39-2.2-6.91-3.6S27.06,36,25.27,36s-2.79.87-4.33,2.26-3.58,3.6-6.91,3.6-5.39-2.2-6.91-3.6S4.59,36,2.79,36A2.84,2.84,0,0,1,.06,33.23a2.73,2.73,0,0,1,2.73-2.67c3.73,0,6.32,2.14,8,3.67s2.53,2.21,3.33,2.21,1.59-.67,3.26-2.21,4.26-3.67,8-3.67,6.25,2.14,8,3.67,2.54,2.21,3.33,2.21,1.6-.67,3.26-2.21,4.26-3.67,8-3.67A2.77,2.77,0,0,1,50.54,33.23ZM2.72,5.63c1.79,0,2.79.79,4.32,2.2s3.59,3.6,6.92,3.6h.59c3-.26,4.86-2.27,6.32-3.6s2.26-2,3.73-2.2c.19,0,.4-.07.66-.07,1.79,0,2.79.8,4.33,2.21.4.33.79.73,1.26,1.19a8.44,8.44,0,0,0,5.65,2.47h.6c3-.26,4.86-2.27,6.31-3.6s2.26-2,3.73-2.2c.2,0,.4-.07.66-.07a2.48,2.48,0,0,0,1-.19,1.84,1.84,0,0,0,.47-.26,2.73,2.73,0,0,0,1.26-2.2,2.56,2.56,0,0,0-.19-1h0a2.66,2.66,0,0,0-.6-.87,2.07,2.07,0,0,0-.4-.34,3.18,3.18,0,0,0-.47-.26A1.78,1.78,0,0,0,48.34.3,1.66,1.66,0,0,0,47.8.24h-.66a12.26,12.26,0,0,0-7.31,3.59c-1.47,1.33-2.27,2.07-3,2.2-.13,0-.2.07-.26.07A2.08,2.08,0,0,1,36,6a5.76,5.76,0,0,1-1.53-1.14,12.92,12.92,0,0,1-1.14-1,11.69,11.69,0,0,0-8-3.59h-.67a12.29,12.29,0,0,0-7.31,3.59c-1.47,1.33-2.26,2.07-3,2.2-.13,0-.2.07-.26.07a2.15,2.15,0,0,1-.6-.13,5.76,5.76,0,0,1-.73-.41,24.31,24.31,0,0,1-2-1.66A11.65,11.65,0,0,0,2.8.3H2.54A2.73,2.73,0,0,0,0,3.1,2.58,2.58,0,0,0,2.72,5.63Zm45,9.74h-.66c-3.33.26-5.72,2.2-7.32,3.59s-2.26,2.07-3,2.2c-.13,0-.19.07-.26.07a1.9,1.9,0,0,1-.93-.34A12.08,12.08,0,0,1,33.26,19c-1.66-1.53-4.26-3.67-8-3.67h-.66c-3.33.26-5.72,2.2-7.32,3.6s-2.26,2.07-3,2.2c-.13,0-.19.06-.26.06a1.93,1.93,0,0,1-.93-.34l-.4-.19a25.24,25.24,0,0,1-2-1.67c-1.67-1.54-4.27-3.67-8-3.67A2.83,2.83,0,0,0,0,18a2.72,2.72,0,0,0,2.73,2.67c1.79,0,2.79.88,4.32,2.27s3.59,3.6,6.92,3.6h.59c3-.27,4.86-2.27,6.32-3.6a8.28,8.28,0,0,1,2.6-1.86l.53-.2c.2-.06.4-.06.6-.13s.4-.07.66-.07c1.8,0,2.8.88,4.33,2.27.4.34.79.73,1.26,1.2a8.44,8.44,0,0,0,5.65,2.46h.6c3-.26,4.86-2.26,6.31-3.59A8.44,8.44,0,0,1,46,21.16c.2-.06.34-.13.53-.19s.41-.07.6-.13.4-.07.67-.07a2.81,2.81,0,0,0,2.72-2.67A2.9,2.9,0,0,0,47.75,15.37Z"/></clipPath></defs><title>Fichier 2</title><g id="Calque_2" data-name="Calque 2"><g id="Ebene_1" data-name="Ebene 1"><g class="cls-2"><path class="cls-3" d="M8.59,2.25l5.15,22.39,1.12,6.23L16,24.77l4.4-22.52H29l4.64,22.39,1.19,6.23,1.2-6,5.2-22.63h8.3l-11,39.1H30.74L26,18.48l-1.38-7.56-1.37,7.56L18.57,41.35H11L-.07,2.25Z" transform="translate(0.07)"/></g><path class="cls-3" d="M57.85,30,54.6,40.71H47.48L59.58,3h8.79L80.64,40.71h-7.4L69.83,30Zm10.8-5.21-3-9.3c-.73-2.29-1.35-4.87-1.91-7h-.11c-.56,2.18-1.12,4.81-1.79,7L59,24.81Z" transform="translate(0.07)"/><path class="cls-3" d="M89.32,8.74H78.56V3h28.51V8.74H96.2v32H89.32Z" transform="translate(0.07)"/><path class="cls-3" d="M133.33,24H119.11V35.06H135v5.65H112.22V3h21.95V8.63H119.11v9.74h14.22Z" transform="translate(0.07)"/><path class="cls-3" d="M141.79,3.47a66.31,66.31,0,0,1,10.41-.78c5.43,0,9.13.9,11.65,3a9.57,9.57,0,0,1,3.25,7.56,10.06,10.06,0,0,1-6.83,9.47v.17c2.68,1,4.31,3.64,5.26,7.28,1.18,4.7,2.19,9.07,3,10.52h-7.11a53,53,0,0,1-2.52-8.9c-1.07-4.93-2.86-6.5-6.78-6.61h-3.47V40.71h-6.83Zm6.83,16.69h4.09c4.64,0,7.56-2.46,7.56-6.21,0-4.15-2.92-6-7.4-6a20.46,20.46,0,0,0-4.25.33Z" transform="translate(0.07)"/><path class="cls-4" d="M8.47,51.13V63.55H21.58V51.13h5.66v31H21.58V68.47H8.47V82.13H2.81v-31Z" transform="translate(0.07)"/><path class="cls-4" d="M37.17,73.35,34.5,82.13H28.66l9.94-31h7.22l10.07,31H49.82L47,73.35Zm8.88-4.28-2.44-7.64c-.6-1.88-1.1-4-1.56-5.79H42c-.46,1.79-.92,4-1.47,5.79l-2.39,7.64Z" transform="translate(0.07)"/><path class="cls-4" d="M78.29,81.21a19.54,19.54,0,0,1-8,1.38c-9.85,0-15.83-6.16-15.83-15.59,0-10.21,7.09-16.38,16.57-16.38A17.78,17.78,0,0,1,78.57,52l-1.24,4.51a15.13,15.13,0,0,0-6.07-1.2c-6.31,0-10.86,4-10.86,11.41,0,6.81,4,11.18,10.81,11.18a15.81,15.81,0,0,0,6.16-1.15Z" transform="translate(0.07)"/><path class="cls-4" d="M81.28,51.13h5.61V65.39H87c.74-1.2,1.52-2.3,2.26-3.36l8.09-10.9h7L93.7,64.33l11.37,17.8H98.44L89.65,67.92l-2.76,3.31v10.9H81.28Z" transform="translate(0.07)"/><path class="cls-4" d="M124,68.38H112.33v9.11H125.4v4.64H106.67v-31h18v4.64H112.33v8H124Z" transform="translate(0.07)"/><path class="cls-4" d="M128.52,51.54a53.58,53.58,0,0,1,8.56-.64c4.46,0,7.5.73,9.57,2.48a7.86,7.86,0,0,1,2.67,6.21,8.29,8.29,0,0,1-5.62,7.78v.13c2.21.83,3.55,3,4.33,6,1,3.86,1.79,7.45,2.44,8.64h-5.85a44.47,44.47,0,0,1-2.07-7.31c-.87-4-2.34-5.34-5.56-5.43h-2.85V82.13h-5.62Zm5.62,13.71h3.35c3.82,0,6.21-2,6.21-5.11,0-3.4-2.39-5-6.07-5a16.22,16.22,0,0,0-3.49.27Z" transform="translate(0.07)"/><path class="cls-4" d="M152.72,76a15.65,15.65,0,0,0,7.5,2c3.63,0,5.66-1.7,5.66-4.23,0-2.35-1.57-3.73-5.53-5.16-5.1-1.84-8.37-4.55-8.37-9,0-5.06,4.23-8.93,11-8.93a16.32,16.32,0,0,1,7.45,1.57L169,56.74a13.07,13.07,0,0,0-6.16-1.47c-3.59,0-5.15,1.93-5.15,3.72,0,2.4,1.79,3.5,5.93,5.11,5.38,2,8,4.74,8,9.2,0,5-3.78,9.29-11.78,9.29a18.41,18.41,0,0,1-8.37-1.93Z" transform="translate(0.07)"/><rect class="cls-3" x="179.71" width="30.91" height="81.9"/><path class="cls-4" d="M196,56.35c-2,.11-4.34.24-6.11.21v.07c1.66.48,3.43,1.07,5.38,1.78l6.86,2.5V62.3l-6.74,2.28c-2,.68-3.82,1.24-5.5,1.64v0c1.77,0,4.14.15,6.26.28l6.07.38v1.74l-14.15-1V65.34l6.84-2.41c1.74-.59,3.3-1.08,4.77-1.43v-.07c-1.43-.35-3-.86-4.77-1.49l-6.84-2.51V55.09l14.15-.88V56Z" transform="translate(0.07)"/><path class="cls-4" d="M197.78,40.92l4.45,1.47v1.89l-14.15-4.81V37.26l14.15-4.83v2l-4.45,1.51Zm-1.43-4.64-4.07,1.38c-.93.32-1.77.53-2.59.74v0c.84.21,1.7.44,2.56.71l4.1,1.39Z" transform="translate(0.07)"/><path class="cls-4" d="M188.24,22a21.91,21.91,0,0,1-.27-3.5,5.79,5.79,0,0,1,1.18-4,3.79,3.79,0,0,1,3-1.24,4.17,4.17,0,0,1,3,1.09,5.87,5.87,0,0,1,1.55,4.33,6.63,6.63,0,0,1-.12,1.47h5.67V22Zm6.83-1.82a6.46,6.46,0,0,0,.14-1.51c0-2.21-1.07-3.55-3-3.55s-2.77,1.32-2.77,3.34a7.34,7.34,0,0,0,.15,1.72Z" transform="translate(0.07)"/></g></g></svg>