<svg xmlns="http://www.w3.org/2000/svg" xmlns:xlink="http://www.w3.org/1999/xlink" viewBox="0 0 171.69 80.35"><defs><style>.cls-1{fill:none;}.cls-2{clip-path:url(#clip-path);}.cls-3{fill:#a7ccec;}.cls-4{fill:#404f58;}</style><clipPath id="clip-path" transform="translate(0.07 -2.01)"><path class="cls-1" d="M50.54,33a2.87,2.87,0,0,1-2.73,2.73C46,35.73,45,36.6,43.42,38s-3.58,3.59-6.91,3.59S31.12,39.39,29.6,38s-2.54-2.27-4.33-2.27-2.79.87-4.33,2.27S17.36,41.59,14,41.59,8.64,39.39,7.12,38s-2.53-2.27-4.33-2.27A2.83,2.83,0,0,1,.06,33a2.73,2.73,0,0,1,2.73-2.67c3.73,0,6.32,2.13,8,3.67s2.53,2.2,3.33,2.2,1.59-.66,3.26-2.2,4.26-3.67,8-3.67,6.25,2.13,8,3.67,2.54,2.2,3.33,2.2,1.6-.66,3.26-2.2,4.26-3.67,8-3.67A2.76,2.76,0,0,1,50.54,33ZM2.72,5.39c1.79,0,2.79.8,4.32,2.2s3.59,3.6,6.92,3.6h.59c3-.26,4.86-2.27,6.32-3.6s2.26-2,3.73-2.2c.19,0,.4-.06.66-.06,1.79,0,2.79.79,4.33,2.2.4.34.79.73,1.26,1.2a8.44,8.44,0,0,0,5.65,2.46h.6c3-.26,4.86-2.27,6.31-3.6s2.26-2,3.73-2.2c.2,0,.4-.06.66-.06a2.48,2.48,0,0,0,1-.2,1.58,1.58,0,0,0,.47-.26,2.73,2.73,0,0,0,1.26-2.2,2.48,2.48,0,0,0-.19-1h0a2.56,2.56,0,0,0-.6-.87,1.54,1.54,0,0,0-.4-.34A2,2,0,0,0,48.87.2a1.52,1.52,0,0,0-.53-.13A1.44,1.44,0,0,0,47.8,0h-.66a12.27,12.27,0,0,0-7.31,3.6c-1.47,1.33-2.27,2.07-3,2.2-.13,0-.2.06-.26.06a1.79,1.79,0,0,1-.6-.13A5.47,5.47,0,0,1,34.45,4.6a12.92,12.92,0,0,1-1.14-1,11.65,11.65,0,0,0-8-3.6h-.67a12.3,12.3,0,0,0-7.31,3.6c-1.47,1.33-2.26,2.07-3,2.2-.13,0-.2.06-.26.06a1.85,1.85,0,0,1-.6-.13,5.56,5.56,0,0,1-.73-.4c-.53-.34-1.13-.94-2-1.67A11.65,11.65,0,0,0,2.8.07H2.54A2.72,2.72,0,0,0,0,2.87,2.57,2.57,0,0,0,2.72,5.39Zm45,9.74h-.66c-3.33.26-5.72,2.2-7.32,3.6s-2.26,2.07-3,2.2c-.13,0-.19.06-.26.06a2,2,0,0,1-.93-.33,12.08,12.08,0,0,1-2.33-1.93c-1.66-1.54-4.26-3.68-8-3.68h-.66c-3.33.27-5.72,2.21-7.32,3.6s-2.26,2.07-3,2.2c-.13,0-.19.07-.26.07a1.93,1.93,0,0,1-.93-.34l-.4-.2a24.69,24.69,0,0,1-2-1.66C9.05,17.18,6.45,15,2.74,15A2.84,2.84,0,0,0,0,17.78a2.73,2.73,0,0,0,2.73,2.67c1.79,0,2.79.87,4.32,2.26s3.59,3.6,6.92,3.6h.59c3-.26,4.86-2.27,6.32-3.6a8.44,8.44,0,0,1,2.6-1.86l.53-.19c.2-.07.4-.07.6-.14s.4-.06.66-.06c1.8,0,2.8.87,4.33,2.27.4.33.79.73,1.26,1.19a8.44,8.44,0,0,0,5.65,2.47h.6c3-.26,4.86-2.27,6.31-3.6A8.39,8.39,0,0,1,46,20.93l.53-.2c.2-.06.41-.06.6-.13s.4-.06.67-.06a2.82,2.82,0,0,0,2.72-2.67A2.9,2.9,0,0,0,47.75,15.13Z"/></clipPath></defs><title>Fichier 1</title><g id="Calque_2" data-name="Calque 2"><g id="Ebene_1" data-name="Ebene 1"><g class="cls-2"><path class="cls-3" d="M8.59,2l5.15,22.4,1.12,6.23L16,24.53,20.39,2H29L33.63,24.4l1.19,6.24,1.2-6L41.22,2h8.3l-11,39.11H30.74L26,18.25l-1.38-7.56-1.37,7.56L18.57,41.12H11L-.07,2Z" transform="translate(0.07 -2.01)"/></g><path class="cls-3" d="M57.85,29.78,54.6,40.48H47.48L59.58,2.73h8.79L80.64,40.48h-7.4l-3.41-10.7Zm10.8-5.21-3-9.29C65,13,64.34,10.41,63.78,8.22h-.11c-.56,2.19-1.12,4.82-1.79,7.06L59,24.57Z" transform="translate(0.07 -2.01)"/><path class="cls-3" d="M89.32,8.5H78.56V2.73h28.51V8.5H96.2v32H89.32Z" transform="translate(0.07 -2.01)"/><path class="cls-3" d="M133.33,23.73H119.11V34.82H135v5.66H112.22V2.73h21.95V8.39H119.11v9.74h14.22Z" transform="translate(0.07 -2.01)"/><path class="cls-3" d="M141.79,3.24a65,65,0,0,1,10.41-.79c5.43,0,9.13.9,11.65,3A9.55,9.55,0,0,1,167.1,13a10.06,10.06,0,0,1-6.83,9.46v.17c2.68,1,4.31,3.64,5.26,7.28,1.18,4.7,2.19,9.07,3,10.53h-7.11a52.87,52.87,0,0,1-2.52-8.91c-1.07-4.92-2.86-6.49-6.78-6.6h-3.47V40.48h-6.83Zm6.83,16.69h4.09c4.64,0,7.56-2.47,7.56-6.22,0-4.14-2.92-6.05-7.4-6.05a19.53,19.53,0,0,0-4.25.34Z" transform="translate(0.07 -2.01)"/><path class="cls-4" d="M8.47,50.89V63.31H21.58V50.89h5.66v31H21.58V68.24H8.47V81.9H2.81v-31Z" transform="translate(0.07 -2.01)"/><path class="cls-4" d="M37.17,73.11,34.5,81.9H28.66l9.94-31h7.22l10.07,31H49.82L47,73.11Zm8.88-4.28L43.61,61.2c-.6-1.89-1.1-4-1.56-5.8H42c-.46,1.79-.92,4-1.47,5.8l-2.39,7.63Z" transform="translate(0.07 -2.01)"/><path class="cls-4" d="M78.29,81a19.54,19.54,0,0,1-8,1.38c-9.85,0-15.83-6.17-15.83-15.6,0-10.21,7.09-16.37,16.57-16.37a17.78,17.78,0,0,1,7.54,1.38l-1.24,4.5a15.15,15.15,0,0,0-6.07-1.19C65,55.08,60.4,59,60.4,66.49c0,6.81,4,11.18,10.81,11.18a15.81,15.81,0,0,0,6.16-1.15Z" transform="translate(0.07 -2.01)"/><path class="cls-4" d="M81.28,50.89h5.61V65.15H87c.74-1.19,1.52-2.3,2.26-3.36l8.09-10.9h7L93.7,64.1l11.37,17.8H98.44L89.65,67.68,86.89,71V81.9H81.28Z" transform="translate(0.07 -2.01)"/><path class="cls-4" d="M124,68.14H112.33v9.11H125.4V81.9H106.67v-31h18v4.65H112.33v8H124Z" transform="translate(0.07 -2.01)"/><path class="cls-4" d="M128.52,51.31a53.44,53.44,0,0,1,8.56-.65c4.46,0,7.5.74,9.57,2.49a7.83,7.83,0,0,1,2.67,6.21,8.27,8.27,0,0,1-5.62,7.77v.14c2.21.83,3.55,3,4.33,6,1,3.86,1.79,7.45,2.44,8.65h-5.85a44.38,44.38,0,0,1-2.07-7.32c-.87-4-2.34-5.33-5.56-5.42h-2.85V81.9h-5.62ZM134.14,65h3.35c3.82,0,6.21-2,6.21-5.11,0-3.41-2.39-5-6.07-5a16,16,0,0,0-3.49.28Z" transform="translate(0.07 -2.01)"/><path class="cls-4" d="M152.72,75.73a15.65,15.65,0,0,0,7.5,2c3.63,0,5.66-1.7,5.66-4.23,0-2.35-1.57-3.73-5.53-5.15-5.1-1.84-8.37-4.56-8.37-9,0-5.06,4.23-8.92,11-8.92A16.34,16.34,0,0,1,170.38,52L169,56.5A13.19,13.19,0,0,0,162.84,55c-3.59,0-5.15,1.93-5.15,3.73,0,2.39,1.79,3.49,5.93,5.1,5.38,2,8,4.74,8,9.21,0,5-3.78,9.29-11.78,9.29a18.41,18.41,0,0,1-8.37-1.93Z" transform="translate(0.07 -2.01)"/></g></g></svg>